<svg width="0" height="0" class="hidden">
  <symbol viewBox="0 0 62 40" xmlns="http://www.w3.org/2000/svg" id="car">
    <path fill-rule="evenodd" clip-rule="evenodd" d="M59.11 31.285l-2.112 1.029c.109.433.163.92.163 1.407A6.283 6.283 0 0 1 50.882 40a6.283 6.283 0 0 1-6.279-6.279c0-.379.054-.757.108-1.136H19.17c.055.379.109.757.109 1.136A6.283 6.283 0 0 1 12.998 40a6.283 6.283 0 0 1-6.278-6.279c0-.379.054-.757.108-1.136H2.057A2.056 2.056 0 0 1 0 30.528V2.057C0 .92.92 0 2.057 0h31.937c1.137 0 2.057.92 2.057 2.057v2.165h9.202c1.299 0 2.49.812 2.923 2.057l3.572 9.797 7.632 2.544c1.245.433 2.11 1.624 2.11 2.923v6.062c-.053 1.57-.92 2.977-2.38 3.68zm-46.111 6.766c2.381 0 4.33-1.948 4.33-4.276 0-2.381-1.949-4.276-4.33-4.276-2.382 0-4.33 1.949-4.33 4.276 0 2.382 1.948 4.276 4.33 4.276zm21.05-35.994c0-.054-.055-.054-.055-.054H2.057c-.054 0-.054.054-.054.054v21.218h32.045V2.057zm0 23.166H2.002v5.359c0 .054.054.054.054.054h5.475c1.083-1.895 3.14-3.194 5.467-3.194 2.327 0 4.384 1.3 5.467 3.194h15.582v-5.413zm16.887 12.828c2.382 0 4.33-1.948 4.33-4.276 0-2.381-1.948-4.276-4.33-4.276s-4.33 1.949-4.33 4.276c0 2.382 1.948 4.276 4.33 4.276zM35.997 15.86h9.256l-1.949-5.412h-7.307v5.412zm10.23-8.93a1.177 1.177 0 0 0-1.082-.759h-9.148v2.274h10.825l-.595-1.516zm1.3 3.518h-2.112l1.949 5.412h2.11l-1.948-5.412zm11.907 14.776h-1.137a.97.97 0 0 1-.974-.974.97.97 0 0 1 .974-.974h1.137v-1.732c0-.488-.325-.92-.758-1.083l-7.902-2.598H35.997v5.413h18.078a.97.97 0 0 1 .975.974.97.97 0 0 1-.974.974h-18.08v5.413h9.418c1.083-1.895 3.14-3.194 5.467-3.194 2.273 0 4.276 1.191 5.359 3.032l1.948-.975a2.156 2.156 0 0 0 1.19-1.948v-2.328h.055zm-8.498 6.495a2.056 2.056 0 1 1 0 4.114 2.056 2.056 0 1 1 0-4.114zm-37.937 0a2.056 2.056 0 1 1 0 4.114 2.056 2.056 0 1 1 0-4.114z"/>
  </symbol>
  <symbol viewBox="0 0 70 70" fill="none" xmlns="http://www.w3.org/2000/svg" id="commerce-and-shopping">
    <path d="M47.305 43.613c-.755 0-1.367.612-1.367 1.367v9.434a6.844 6.844 0 0 1-6.836 6.836H24.34c-.755 0-1.366.611-1.367 1.366l-.002 2.719-3.263-3.264a1.368 1.368 0 0 0-1.254-.821H9.57a6.844 6.844 0 0 1-6.836-6.836V33.36a6.844 6.844 0 0 1 6.836-6.836h13.81a1.367 1.367 0 0 0 0-2.734H9.57C4.293 23.79 0 28.082 0 33.36v21.055c0 5.277 4.293 9.57 9.57 9.57h8.184l5.615 5.616a1.367 1.367 0 0 0 2.334-.966l.003-4.65h13.396c5.277 0 9.57-4.293 9.57-9.57V44.98c0-.755-.612-1.367-1.367-1.367z" fill="#00398E"/>
    <path d="M50.129 0h-3.46C35.71 0 26.796 8.914 26.796 19.872c0 10.957 8.914 19.87 19.871 19.87h3.46c1.71 0 3.403-.216 5.044-.646l5.111 5.109a1.367 1.367 0 0 0 2.334-.967v-7.91a20.063 20.063 0 0 0 5.224-6.44A19.658 19.658 0 0 0 70 19.871C70 8.915 61.086 0 50.129 0zm10.298 33.57a1.368 1.368 0 0 0-.544 1.091v5.278l-3.346-3.344a1.368 1.368 0 0 0-1.368-.34c-1.627.5-3.323.754-5.04.754h-3.46c-9.45 0-17.138-7.688-17.138-17.137 0-9.45 7.688-17.138 17.137-17.138h3.46c9.45 0 17.138 7.688 17.138 17.138 0 5.431-2.493 10.424-6.839 13.697z" fill="#00398E"/>
    <path d="M54.555 14.96a5.802 5.802 0 0 0-5.367-5.367 5.744 5.744 0 0 0-4.356 1.542 5.81 5.81 0 0 0-1.84 4.232 1.367 1.367 0 0 0 2.735 0c0-.855.345-1.648.971-2.233a3.056 3.056 0 0 1 5.13 2.014 3.04 3.04 0 0 1-2.376 3.2 2.587 2.587 0 0 0-2.038 2.536v3.284a1.367 1.367 0 0 0 2.734 0v-3.175a5.759 5.759 0 0 0 4.407-6.033zm-4.807 13.65a1.378 1.378 0 0 0-.967-.4c-.36 0-.712.145-.966.4a1.373 1.373 0 0 0 0 1.934c.254.255.607.4.966.4.36 0 .713-.145.967-.4s.4-.607.4-.968c0-.36-.146-.712-.4-.966zm-12.15 13.773H8.75a1.367 1.367 0 0 0 0 2.734h28.848a1.367 1.367 0 1 0 0-2.734zm.966 8.057a1.377 1.377 0 0 0-.966-.4c-.36 0-.713.145-.967.4-.254.254-.4.607-.4.966 0 .36.146.713.4.967s.607.4.967.4.712-.146.966-.4a1.372 1.372 0 0 0 0-1.933zm-6.344-.4H8.75a1.367 1.367 0 0 0 0 2.733h23.47a1.367 1.367 0 1 0 0-2.734zm-3.51-15.313H8.75a1.367 1.367 0 0 0 0 2.734h19.96a1.367 1.367 0 1 0 0-2.734z" fill="#00398E"/>
  </symbol>
  <symbol viewBox="0 0 35 35" fill="none" xmlns="http://www.w3.org/2000/svg" id="electrocity">
    <path d="M31.748 6.576h-.036V1.06c0-.585-.476-1.061-1.06-1.061H4.349c-.585 0-1.061.476-1.061 1.06v5.516h-.035a1.61 1.61 0 0 0-1.609 1.608v18.632a1.61 1.61 0 0 0 1.609 1.608h.035v5.515c0 .585.476 1.061 1.06 1.061h26.304c.584 0 1.06-.476 1.06-1.06v-5.516h.035a1.61 1.61 0 0 0 1.61-1.608V8.184a1.61 1.61 0 0 0-1.61-1.608zm-13.735-5.55h12.639c.02 0 .035.015.035.035v5.515H18.013v-5.55zm-13.7.035c0-.02.016-.036.036-.036h12.639v5.55H4.313V1.062zm26.374 32.878c0 .02-.016.036-.035.036h-12.64v-5.55h12.675v5.514zm1.644-20.788h-2.775a.513.513 0 0 0 0 1.026h2.775v12.639a.584.584 0 0 1-.583.583H7.088a.513.513 0 1 0 0 1.025h9.9v5.55H4.348a.035.035 0 0 1-.035-.035v-5.515h.584a.513.513 0 0 0 0-1.025H3.253a.584.584 0 0 1-.583-.583v-12.64h24.694a.513.513 0 0 0 0-1.024H2.669V8.184c0-.321.262-.583.584-.583h28.494c.322 0 .584.262.584.583v4.968z" fill="#fff"/>
    <path d="M16.369 20.408V17.5a1.61 1.61 0 0 0-1.609-1.609h-1.644a1.61 1.61 0 0 0-1.608 1.609v2.908a1.061 1.061 0 0 0-.548.928v1.096c0 .585.475 1.06 1.06 1.06h3.836a1.06 1.06 0 0 0 1.06-1.06v-1.096c0-.4-.22-.747-.547-.928zM12.533 17.5c0-.322.262-.583.583-.583h1.644c.322 0 .583.261.583.583v2.775h-2.81V17.5zm3.358 4.932c0 .02-.015.035-.035.035H12.02a.035.035 0 0 1-.035-.035v-1.096c0-.02.016-.035.035-.035h3.836c.02 0 .035.015.035.035v1.096zm7.601-2.024V17.5a1.61 1.61 0 0 0-1.608-1.609H20.24a1.61 1.61 0 0 0-1.61 1.609v2.908a1.061 1.061 0 0 0-.548.928v1.096c0 .585.476 1.06 1.06 1.06h3.837a1.06 1.06 0 0 0 1.06-1.06v-1.096c0-.4-.221-.747-.548-.928zM19.657 17.5c0-.322.261-.583.583-.583h1.644c.321 0 .583.261.583.583v2.775h-2.81V17.5zm3.358 4.932c0 .02-.016.035-.035.035h-3.836a.035.035 0 0 1-.035-.035v-1.096c0-.02.015-.035.035-.035h3.836c.02 0 .035.015.035.035v1.096zm7.601-2.024V17.5a1.61 1.61 0 0 0-1.608-1.609h-1.644a1.61 1.61 0 0 0-1.609 1.609v2.908a1.061 1.061 0 0 0-.548.928v1.096c0 .585.476 1.06 1.06 1.06h3.837a1.06 1.06 0 0 0 1.06-1.06v-1.096c0-.4-.221-.747-.548-.928zM26.78 17.5c0-.322.262-.583.584-.583h1.644c.321 0 .583.261.583.583v2.775h-2.81V17.5zm3.359 4.932c0 .02-.016.035-.035.035h-3.836a.035.035 0 0 1-.036-.035v-1.096c0-.02.016-.035.036-.035h3.835c.02 0 .036.015.036.035v1.096zM9.245 20.408V17.5a1.61 1.61 0 0 0-1.608-1.609H5.993a1.61 1.61 0 0 0-1.61 1.609v2.908a1.061 1.061 0 0 0-.547.928v1.096c0 .585.476 1.06 1.06 1.06h3.836c.585 0 1.061-.475 1.061-1.06v-1.096c0-.4-.221-.747-.548-.928zM5.41 17.5c0-.322.262-.583.584-.583h1.643c.322 0 .584.261.584.583v2.775H5.41V17.5zm3.359 4.932c0 .02-.016.035-.036.035H4.897a.035.035 0 0 1-.036-.035v-1.096c0-.02.016-.035.036-.035h3.835c.02 0 .036.015.036.035v1.096zm4.895-20.24A1.61 1.61 0 0 0 12.055 3.8a1.61 1.61 0 0 0 1.61 1.61 1.61 1.61 0 0 0 1.608-1.61 1.61 1.61 0 0 0-1.609-1.608zm0 2.192a.584.584 0 1 1 .001-1.168.584.584 0 0 1 0 1.168zM7.636 2.192A1.61 1.61 0 0 0 6.028 3.8a1.61 1.61 0 0 0 1.608 1.61A1.61 1.61 0 0 0 9.245 3.8a1.61 1.61 0 0 0-1.609-1.608zm0 2.192a.584.584 0 1 1 .002-1.168.584.584 0 0 1-.002 1.168zm19.727-2.192a1.61 1.61 0 0 0-1.608 1.609 1.61 1.61 0 0 0 1.608 1.608 1.61 1.61 0 0 0 1.61-1.608 1.61 1.61 0 0 0-1.61-1.609zm0 2.192a.584.584 0 1 1 .002-1.168.584.584 0 0 1-.002 1.168zm-6.027-2.192a1.61 1.61 0 0 0-1.609 1.609 1.61 1.61 0 0 0 1.609 1.608 1.61 1.61 0 0 0 1.609-1.608 1.61 1.61 0 0 0-1.61-1.609zm0 2.192a.584.584 0 1 1 .001-1.168.584.584 0 0 1-.001 1.168zm0 25.206a1.61 1.61 0 0 0-1.609 1.61 1.61 1.61 0 0 0 1.609 1.608 1.61 1.61 0 0 0 1.609-1.608 1.61 1.61 0 0 0-1.61-1.61zm0 2.193a.584.584 0 1 1 .001-1.168.584.584 0 0 1-.001 1.168zm6.027-2.193a1.61 1.61 0 0 0-1.608 1.61 1.61 1.61 0 0 0 1.608 1.608 1.61 1.61 0 0 0 1.61-1.608 1.61 1.61 0 0 0-1.61-1.61zm0 2.193a.584.584 0 1 1 .002-1.168.584.584 0 0 1-.002 1.168zM7.636 29.59a1.61 1.61 0 0 0-1.608 1.61 1.61 1.61 0 0 0 1.608 1.608A1.61 1.61 0 0 0 9.245 31.2a1.61 1.61 0 0 0-1.609-1.61zm0 2.193a.584.584 0 1 1 .002-1.168.584.584 0 0 1-.002 1.168zm6.028-2.193a1.61 1.61 0 0 0-1.609 1.61 1.61 1.61 0 0 0 1.61 1.608 1.61 1.61 0 0 0 1.608-1.608 1.61 1.61 0 0 0-1.609-1.61zm0 2.193a.584.584 0 1 1 .001-1.168.584.584 0 0 1 0 1.168zm-5.48-21.371h-2.74a.513.513 0 0 0 0 1.025h2.74a.513.513 0 1 0 0-1.025zm7.124 0h-2.74a.513.513 0 0 0 0 1.025h2.74a.513.513 0 1 0 0-1.025zm7.124 0h-2.74a.513.513 0 0 0 0 1.025h2.74a.513.513 0 1 0 0-1.025zm7.124 0h-2.74a.513.513 0 0 0 0 1.025h2.74a.513.513 0 0 0 0-1.025z" fill="#fff"/>
  </symbol>
  <symbol viewBox="0 0 65 65" fill="none" xmlns="http://www.w3.org/2000/svg" id="guarantee">
    <path d="M20.757 18.547a1.258 1.258 0 0 0 0-2.514c-.694 0-1.257.52-1.257 1.214 0 .693.563 1.3 1.257 1.3zm0 7.626a1.258 1.258 0 0 0 0-2.513c-.694 0-1.257.52-1.257 1.213 0 .694.563 1.3 1.257 1.3z" fill="#00398E"/>
    <path d="M18.2 65h34.797c4.896 0 8.883-3.987 8.883-8.883 0-.694-.563-1.257-1.257-1.257H56.81V6.327C56.81 2.817 53.95 0 50.483 0H9.317c-2.774 0-5.07 2.297-5.07 5.07v6.327c0 .693.563 1.256 1.256 1.256h6.327v45.674C11.873 61.837 14.473 65 18.2 65zm34.84-2.557H23.27c.78-1.083 1.257-2.383 1.257-3.813v-1.257h34.666a6.274 6.274 0 0 1-6.153 5.07zm1.257-56.116v48.49H23.313c-.693 0-1.256.563-1.256 1.256v2.557c0 2.08-1.69 3.813-3.814 3.813-2.296 0-3.813-1.95-3.813-4.073V5.07c0-.91-.26-1.777-.693-2.557h36.746c2.08.044 3.814 1.734 3.814 3.814zM6.803 10.14V5.07A2.561 2.561 0 0 1 9.36 2.513a2.561 2.561 0 0 1 2.557 2.557v5.07H6.803z" fill="#00398E"/>
    <path d="M36.53 36.313c0 2.21.91 4.247 2.557 5.677v8.277c0 .476.26.91.65 1.126.433.217.91.217 1.3-.043l3.12-2.08 3.12 2.08c.39.26.91.303 1.3.043.433-.216.65-.65.65-1.126V41.99a7.584 7.584 0 0 0 2.556-5.677c0-4.203-3.423-7.626-7.626-7.626-4.204 0-7.627 3.423-7.627 7.626zm8.32 10.357a1.237 1.237 0 0 0-1.43 0l-1.82 1.213v-4.42c.823.304 1.647.434 2.557.434.91 0 1.733-.13 2.556-.434v4.42L44.85 46.67zm4.377-10.357c0 2.86-2.34 5.07-5.07 5.07-2.73 0-5.07-2.21-5.07-5.07 0-2.816 2.296-5.07 5.07-5.07 2.773 0 5.07 2.254 5.07 5.07zM20.757 10.92h27.17a1.258 1.258 0 0 0 0-2.513h-27.17a1.258 1.258 0 0 0 0 2.513zm5.069 7.627h22.1a1.258 1.258 0 0 0 0-2.514h-22.1a1.258 1.258 0 0 0 0 2.514zm0 7.626h22.1a1.258 1.258 0 0 0 0-2.513h-22.1a1.258 1.258 0 0 0 0 2.513zm-5.069 15.21h11.96a1.257 1.257 0 0 0 0-2.513h-11.96a1.258 1.258 0 0 0 0 2.513zm0-7.626h11.96a1.258 1.258 0 0 0 0-2.514h-11.96a1.258 1.258 0 0 0 0 2.514zm0 15.253h11.96a1.257 1.257 0 0 0 0-2.513h-11.96a1.258 1.258 0 0 0 0 2.513z" fill="#00398E"/>
  </symbol>
  <symbol viewBox="0 0 51 50" xmlns="http://www.w3.org/2000/svg" id="house">
    <path fill-rule="evenodd" clip-rule="evenodd" d="M49.08 50H21.43c-.413 0-.774-.258-.93-.619-.154-.361-.05-.774.207-1.083l6.139-6.036 11.607-11.607 9.956-9.956a1.034 1.034 0 0 1 1.083-.206c.361.154.62.516.62.928v27.65A1.018 1.018 0 0 1 49.08 50zm-.98-26.257l-3.715 3.714.929.928c.361.361.361.98 0 1.393-.206.207-.464.31-.67.31-.259 0-.517-.104-.671-.31l-.929-.928-2.476 2.476.928.928c.362.361.362.98 0 1.393-.206.206-.464.31-.67.31-.206 0-.516-.104-.67-.31l-.93-.928-2.579 2.476.929.928c.361.361.361.98 0 1.393-.206.206-.464.31-.67.31-.207 0-.517-.104-.671-.31l-.98-.928-2.477 2.476.929.928c.361.361.361.98 0 1.393-.206.206-.464.31-.67.31-.207 0-.517-.104-.671-.31l-.929-.928-2.476 2.476.929.928c.36.361.36.98 0 1.393-.207.206-.465.31-.671.31-.258 0-.516-.104-.67-.31l-.93-.928-3.713 3.714h24.297V23.743h-.104zm-4.592 8.718a1.034 1.034 0 0 1 1.084-.207c.36.155.619.516.619.929V44.17a.98.98 0 0 1-.98.98H33.243a1.02 1.02 0 0 1-.929-.62c-.155-.36-.051-.773.206-1.082L43.508 32.46zm-.31 10.678v-7.635l-7.634 7.635H43.2zm-10.265-12.02c.206.207.31.413.31.671 0 .258-.104.516-.31.67-.206.207-.413.31-.67.31-.258 0-.516-.103-.671-.31-.206-.206-.31-.412-.31-.67 0-.258.104-.516.31-.67.206-.207.413-.31.67-.31.207.052.465.155.671.31zm-6.81-12.69a3.699 3.699 0 0 1-3.713 3.714 3.699 3.699 0 0 1-3.715-3.714 3.699 3.699 0 0 1 3.715-3.714 3.699 3.699 0 0 1 3.714 3.714zm-5.467 0c0 .98.773 1.754 1.754 1.754a1.74 1.74 0 0 0 1.753-1.754 1.74 1.74 0 0 0-1.753-1.754 1.74 1.74 0 0 0-1.754 1.754zM5.902 36.33v-7.84a.98.98 0 0 1 .98-.98h7.841a.98.98 0 0 1 .98.98v7.84a.98.98 0 0 1-.98.98h-7.84a.98.98 0 0 1-.981-.98zm1.96-.98h5.881v-5.88h-5.88v5.88zm35.182-13.102a.832.832 0 0 1-.206.36l-7.48 7.48c-.361.362-.98.362-1.393 0-.361-.36-.361-.98 0-1.392l6.81-6.81-2.838-2.837-17.849 17.85 2.837 2.836 6.242-6.242c.361-.36.98-.36 1.393 0 .361.361.361.98 0 1.393l-8.254 8.254a3.943 3.943 0 0 1-2.785 1.135c-1.032 0-2.012-.361-2.786-1.135a3.985 3.985 0 0 1 0-5.623l.877-.877c-.051-.103-.051-.206-.051-.31V24.982a.98.98 0 0 1 .98-.98h7.79a.98.98 0 1 1 0 1.96h-6.862v8.77l14.496-14.496L22.41 8.679 8.069 23.02c-.207.207-.413.31-.671.31H3.942v24.71h14.547a.98.98 0 1 1 0 1.96H2.962a.98.98 0 0 1-.98-.98V23.33h-.98a1.02 1.02 0 0 1-.93-.62c-.154-.36-.05-.773.207-1.082L21.687.27c.361-.361.98-.361 1.393 0l11.143 11.143c.36.36.36.98 0 1.392-.361.361-.98.361-1.393 0L22.41 2.334 3.374 21.37h3.611L21.687 6.616c.207-.206.413-.31.671-.31.258 0 .516.104.67.31l12.278 12.277 1.857-1.857a.832.832 0 0 1 .361-.206l6.655-2.424a.948.948 0 0 1 1.238 1.237l-2.373 6.604zM18.695 38.29l-.619.619c-.36.361-.567.877-.567 1.444 0 .516.206 1.032.567 1.445.361.36.877.567 1.445.567.516 0 1.031-.206 1.444-.567l.62-.62-2.89-2.888zm20.996-20.222l2.063 2.063 1.187-3.25-3.25 1.187zm-3.714-2.58c-.258 0-.516-.102-.67-.309-.207-.206-.31-.412-.31-.67 0-.258.103-.516.31-.671.206-.206.412-.31.67-.31.258 0 .516.104.67.31.207.206.31.413.31.67 0 .259-.103.517-.31.671-.154.207-.412.31-.67.31z"/>
  </symbol>
  <symbol viewBox="0 0 25 26" fill="none" xmlns="http://www.w3.org/2000/svg" id="insta">
    <path fill-rule="evenodd" clip-rule="evenodd" d="M18.1 25.62H6.9c-3.805 0-6.9-3.17-6.9-7.065V7.085C0 3.188 3.095.018 6.9.018h11.2c3.805 0 6.9 3.17 6.9 7.065v11.47c0 3.897-3.095 7.066-6.9 7.066zm4.681-7.065V7.085c0-2.644-2.1-4.794-4.68-4.794H6.899c-2.58 0-4.68 2.15-4.68 4.793v11.47c0 2.644 2.1 4.794 4.68 4.794h11.202c2.58 0 4.68-2.15 4.68-4.793zM19.21 7.627c-.428 0-.85-.177-1.147-.487a1.704 1.704 0 0 1 0-2.36c.303-.311.72-.489 1.147-.489.427 0 .85.178 1.153.488a1.704 1.704 0 0 1 0 2.36c-.303.311-.72.488-1.153.488zM12.5 19.414c-3.55 0-6.44-2.96-6.44-6.594 0-3.636 2.89-6.595 6.44-6.595 3.55 0 6.44 2.96 6.44 6.595s-2.89 6.594-6.44 6.594zm0-10.922c-2.327 0-4.226 1.94-4.226 4.328 0 2.382 1.894 4.322 4.226 4.322 2.327 0 4.226-1.94 4.226-4.322 0-2.383-1.9-4.328-4.226-4.328z" fill="#FFBC0F"/>
  </symbol>
  <symbol viewBox="0 0 65 65" fill="none" xmlns="http://www.w3.org/2000/svg" id="logo">
    <path d="M65 32.5C65 50.427 50.414 65 32.5 65S0 50.427 0 32.5 14.586 0 32.5 0 65 14.573 65 32.5zm-59.758 0c0 15.031 12.227 27.258 27.258 27.258 15.031 0 27.258-12.227 27.258-27.258 0-15.031-12.227-27.258-27.258-27.258-15.031 0-27.258 12.227-27.258 27.258z" fill="#FFBC0F"/>
    <path d="M43.967 2.097h12.646c1.153 0 2.097.943 2.097 2.097a2.103 2.103 0 0 1-2.097 2.096h-4.928c.892.656 1.756 1.35 2.582 2.097h2.346c1.953 0 3.578-1.337 4.05-3.145H65V3.145h-4.338A4.187 4.187 0 0 0 56.612 0H32.5c4.036 0 7.902.747 11.467 2.097zM56.613 58.71c1.153 0 2.097.943 2.097 2.096a2.103 2.103 0 0 1-2.097 2.097H43.967A32.322 32.322 0 0 1 32.5 65h24.113c1.953 0 3.578-1.337 4.05-3.145H65v-2.097h-4.338a4.187 4.187 0 0 0-4.05-3.145h-2.345a30.562 30.562 0 0 1-2.582 2.097h4.928zM12.58 32.5c0 10.982 8.938 19.92 19.92 19.92 10.982 0 19.92-8.938 19.92-19.92 0-10.982-8.938-19.92-19.92-19.92-10.982 0-19.92 8.938-19.92 19.92zm37.743 0c0 9.829-7.994 17.823-17.823 17.823-9.828 0-17.822-7.994-17.822-17.823S22.672 14.677 32.5 14.677c9.829 0 17.823 7.994 17.823 17.823z" fill="#fff"/>
    <path d="M16.774 32.5c0 8.675 7.05 15.726 15.726 15.726 8.675 0 15.726-7.05 15.726-15.726 0-8.675-7.05-15.726-15.726-15.726-8.675 0-15.726 7.05-15.726 15.726zm29.355 0c0 7.51-6.12 13.629-13.629 13.629-7.51 0-13.63-6.12-13.63-13.629 0-7.51 6.12-13.629 13.63-13.629 7.509 0 13.629 6.12 13.629 13.629z" fill="#fff"/>
    <path d="M8.387 32.5c0 13.301 10.812 24.113 24.113 24.113S56.613 45.8 56.613 32.5 45.801 8.387 32.5 8.387 8.387 19.2 8.387 32.5zm46.13 0c0 12.135-9.882 22.016-22.017 22.016S10.484 44.636 10.484 32.5c0-12.135 9.881-22.016 22.016-22.016 12.135 0 22.016 9.88 22.016 22.016z" fill="#fff"/>
    <path d="M4.194 32.5c0 15.608 12.698 28.306 28.306 28.306S60.806 48.108 60.806 32.5 48.108 4.194 32.5 4.194 4.194 16.892 4.194 32.5zm54.516 0c0 14.455-11.755 26.21-26.21 26.21S6.29 46.955 6.29 32.5 18.045 6.29 32.5 6.29 58.71 18.045 58.71 32.5z" fill="#fff"/>
  </symbol>
  <symbol viewBox="0 0 104 65" fill="none" xmlns="http://www.w3.org/2000/svg" id="map">
    <path d="M19.074 14.079c-3.11 0-5.688 2.577-5.688 5.776 0 3.2 2.578 5.777 5.688 5.777s5.688-2.578 5.688-5.777c0-3.2-2.578-5.776-5.688-5.776zm0 8.353c-1.422 0-2.666-1.155-2.666-2.666 0-1.51 1.155-2.666 2.666-2.666 1.422 0 2.666 1.155 2.666 2.666s-1.244 2.666-2.666 2.666zm17.418 34.037a1.688 1.688 0 1 0 0-3.377 1.688 1.688 0 0 0 0 3.377zm64.962-21.506c1.956-1.333 1.778-3.822 1.245-5.688-.622-2.488-4.266-5.51-5.6-6.576l-.266-.267c-1.244-1.066-1.955-2.044-1.955-2.932 0-.534.178-.978.533-1.333 1.067-1.156 1.511-1.867 1.778-3.555.266-1.6.178-2.31-1.333-4.888-.445-.8-.889-1.244-1.155-1.6-.711-.888-.89-1.155-.267-2.843.622-1.689-1.51-3.644-3.555-4.71-1.688-.978-2.844-.711-4.266.888l-.355.356c-1.155 1.333-2.044 2.31-3.021 2.933-.356.266-.622.977-.445 1.6.09.266.267.888.978.977 1.155.089 1.955-.8 2.932-1.778l.8-.8c1.422-1.421 2.489-1.688 3.2-.8.088.09.177.179.266.267.533.622 1.333 1.422.711 3.2-.356.977.977 3.021 1.866 4.443.267.356.445.711.622.978.889 1.51 0 3.377-1.333 4.62-.977.89-.977 1.334-.71 2.845.266 1.332 1.155 2.31 3.199 4.265l.355.356c1.955 1.777 3.555 3.288 4.266 4.354.8 1.244.444 2.844 0 3.288-.178.178-.445.267-.8.267-.978 0-2.933-.711-5.51-2.755-1.244-.978-2.222-1.422-3.2-1.422-1.599 0-2.932 1.244-4.71 3.022-2.576 2.488-2.754 4.976-2.843 6.398v.267c-.089 1.244.178 2.31 1.777 3.732.711.622 1.422.889 2.133.889 1.156 0 2.044-.711 2.577-1.333.534-.622 1.422-1.067 2.311-1.067a3.2 3.2 0 0 1 1.777.534c1.156.977 1.245 2.755.09 4.798-.89 1.689.088 4.444 1.066 5.955 1.155 1.777-.178 3.82-.622 4.532l-.178.267c-.622.977-1.156 1.866-2.31 1.777-.623-.09-.978-.267-1.245-.622-.444-.622-.178-1.422.089-2.4.178-.8.444-1.688.267-2.488-.267-1.155-1.422-1.6-2.4-1.6-.977 0-1.866.356-2.488.978-.444.444-.889.71-1.333.71-.711 0-1.155-.532-1.777-1.243a9.429 9.429 0 0 0-1.334-1.333c-2.044-1.6-3.377-1.689-4.798-.445-1.511 1.422-1.422 2.933-1.333 4.355 0 .178 0 .355.088.533.09.711.09 1.333-.177 1.689-.178.266-.534.355-1.067.266-1.066-.177-2.4.445-3.021 1.333-.356.533-.889.622-1.333.622h-1.422c-.622 0-1.155.09-1.6.267-.177.089-.355.089-.444.089-.889 0-1.422-.8-2.044-1.6-.8-1.155-1.688-2.31-3.555-2.044-2.932.444-3.643 1.866-3.643 3.022-.09 1.333-.622 2.755-1.689 2.755-.355 0-.71-.178-1.066-.445-1.067-.71-1.955-.355-3.2.178-.355.178-.71.355-1.066.444a3.565 3.565 0 0 1-1.333.267c-1.422 0-2.488-.889-3.2-1.6-.532-.533-1.332-.888-2.043-.888-.444 0-.8.177-.978.533-.266.533-.355 1.066-.266 1.51.355 1.245 2.133 2.311 3.821 3.111.8.355 1.6.622 2.4.622 1.066 0 1.866-.355 2.399-.622.267-.089.444-.267.622-.444.444-.356.977-.622 1.689-.622.266 0 .444 0 .71.088h.178c.533.178.978.267 1.422.267.622 0 1.333-.267 2.4-.8 1.333-.71 1.333-1.155 1.421-2.044 0-.444.09-.888.267-1.51.355-1.156.977-1.245 1.244-1.245.8 0 1.51.889 1.689 2.222.177 1.066.977 1.51 2.932 1.6.8 0 1.333-.09 1.955-.267.711-.178 1.511-.355 2.31-.178 1.423.356 2.756-.177 3.378-1.244.444-.8 1.422-.889 2.31-.977.89-.09 1.867-.178 2.311-.978.71-1.155.622-1.955.533-3.021 0-.445-.089-.89-.089-1.422 0-.711 0-1.689.711-1.689.356 0 .622.267 1.333.978l.356.355c.8.889 1.066 1.244 3.288 1.866.355.09.71.178.977.178.623 0 1.067-.266 1.422-.533.445-.355.978-.711 1.778-.533.355.089.533.178.71.444.178.356 0 .8-.266 1.333-.356.8-.8 1.866-.267 3.11.711 1.511 1.956 2.222 3.91 2.222.445 0 .89 0 1.334-.089 1.688-.266 4.176-4.088 4.799-6.31.621-2.043-.445-4.176-1.334-5.776-.71-1.244-.355-2.221 0-3.288.178-.355.267-.8.445-1.244.355-1.6.178-4.088-.889-5.332-1.155-1.422-2.222-2.044-3.91-2.222-1.422-.178-2.755.445-3.91 1.778-.445.533-.889.8-1.244.8-.356 0-.89-.267-1.156-1.422-.355-1.778 2.133-4.977 2.844-5.866.622-.71 1.244-1.155 1.955-1.155.622 0 1.333.355 2.222 1.066 1.6 1.333 2.31 1.6 4.532 2.311l.8.267c1.066.622 1.777.8 3.021-.09z" fill="#00398E"/>
    <path d="M80.126 16.478a1.688 1.688 0 1 0 0-3.377 1.688 1.688 0 0 0 0 3.377zM40.313 26.876c.445 0 .89.177 1.511.533.978.622 1.955.978 3.022.978.8 0 1.6-.178 2.577-.534 1.155-.444 2.488-1.6 3.643-2.577.622-.533 1.244-1.066 1.778-1.422l.266-.177c.889-.623 1.6-1.156 2.4-1.156.71 0 1.333.356 1.955 1.155.71.978 1.51 1.422 2.31 1.422.356 0 .711-.088 1.067-.266.267-.09.622-.356.977-.534.534-.355 1.156-.8 1.778-.8.178 0 .355.09.533.178.622.356 2.133.978 3.377.978.622 0 1.155-.178 1.422-.533.622-.622 1.155-1.422 1.6-2.044.533-.711.888-1.333 1.421-1.778.356-.266 1.067-.888 1.067-1.6 0-.355-.178-.621-.533-.977-.267-.177-.534-.355-.89-.355-.977 0-1.954.977-2.31 1.6-.089.177-.266.444-.355.8-.445 1.066-1.067 2.31-1.955 2.31-.178 0-.267 0-.445-.089-.177-.089-.444-.178-.71-.355-.978-.445-2.044-.89-2.755-.623-.267.09-.445.267-.711.445-.356.266-.8.533-1.333.533-.445 0-.89-.178-1.511-.444l-.356-.178c-1.155-.711-2.4-1.422-3.91-1.422-.8 0-1.6.267-2.31.711-.8.533-1.689 1.333-2.666 2.133-1.778 1.6-3.644 3.288-5.421 3.288-.356 0-.711-.089-1.067-.267-.533-.266-.977-.444-1.422-.71-1.688-.8-2.666-1.334-3.732-.267l-.711.71c-.889.89-1.51 1.511-2.222 1.511-.266 0-.533-.088-.8-.355-.622-.533-2.044-.8-2.577-.889h-.355l.089-.355s.533-2.577.888-5.155c.267-1.955-.355-6.31-3.288-9.686-2.577-2.933-6.22-4.444-10.842-4.444-4.088 0-7.376 1.334-9.864 4-3.021 3.288-3.91 7.465-3.732 10.13.177 2.489 1.155 4.977 2.044 6.843.266.711.622 1.333.8 1.955.088.178 0 .267-.178.534-1.156 1.6-1.689 2.666-1.689 3.377.089 1.51.089 3.021-1.155 3.643-1.067.533-1.51 1.333-1.244 2.4.266 1.244.355 2.132.444 3.11 0 .267 0 .444.089.71.089.623.266 1.156.533 1.69.178.355.267.621.356.977.177.533.088 1.155-.178 1.51-.267.356-.8.8-1.955.8-1.333 0-2.133.356-2.489 1.245-.444 1.066-.8 3.021-.444 3.999.356 1.155.622 1.777.444 2.932-.088.711.534 1.422 1.689 2.044l.267.178c.8.355 1.421.711 1.777 1.955 0 .178.089.356.089.622.177 1.155.355 2.577 3.821 2.933 1.689.178 2.4-.089 3.466-1.244.622-.8.71-1.689.8-2.4 0-.266 0-.533.089-.8.177-.444.622-.622.977-.71.444-.09.978-.267 1.333-.8.711-.978.978-1.689.889-4 0-.977.266-1.954.8-2.488.266-.266.622-.444.888-.444.356 0 .8.267.889.978.089.533.622 5.598 4.355 5.776 3.021.178 3.82-1.155 4.265-2.044l.09-.178c.266-.444.799-.888 1.243-1.244.445-.355.978-.71 1.067-1.066.177-.533.088-1.155-.267-1.6-.355-.444-.889-.622-1.6-.355-1.333.444-2.044 1.51-2.31 1.955-.356.622-1.244 1.777-2.222 1.777-.355 0-.889-.178-1.333-.889-.444-.8-.533-1.51-.622-2.221-.089-.978-.178-1.867-1.155-2.755-.711-.711-1.422-.978-2.044-.978-.8 0-1.689.445-2.933 1.6-1.777 1.6-1.688 2.133-1.6 3.466.178 1.066.09 2.488-.444 3.021-.266.267-.622.356-1.066.267-.711-.267-1.866 1.333-2.044 2.488-.267 1.244-.889 2.044-1.6 2.044-.355 0-.71-.178-1.066-.622-.267-.355-.356-.889-.356-1.51-.089-.712-.177-1.423-.444-1.778-.178-.267-.622-.355-.978-.533-.8-.267-1.777-.711-1.955-1.867 0-.177-.089-.444-.089-.622-.266-1.421-.533-2.932.978-3.288.178-.089.355-.089.533-.089 1.511-.355 3.466-.8 3.377-3.91-.089-1.688-.355-2.666-.622-3.466-.355-1.155-.622-2.044-.178-3.91.09-.444.356-.71.622-.977.267-.267.623-.622.8-1.333.445-1.333.8-4.088.8-4.177l.089-.8.444.622s3.288 4.088 4.977 5.688c1.51 1.51 3.11 2.221 4.443 2.221 1.244 0 2.844-.444 5.777-3.732 3.288-3.644 5.332-7.82 5.332-7.91l.178-.355.355.267c.267.266.889.622 1.244.622h.089c.355-.178.8 0 1.333.355.533.356 1.244.711 1.777.445.8-.267 1.333-.356 1.689-.356.533-.089.71-.089 1.333-.622.267-.266.444-.533.71-.8-.088-1.066.267-1.6.978-1.6zm-21.15 10.22c-1.955 0-11.286-8.71-11.286-17.507 0-8.71 7.109-11.02 10.841-11.02 6.932 0 11.553 4.443 11.553 11.108 0 6.932-9.064 17.419-11.108 17.419z" fill="#00398E"/>
  </symbol>
  <symbol viewBox="0 0 51 50" xmlns="http://www.w3.org/2000/svg" id="money">
    <path fill-rule="evenodd" clip-rule="evenodd" d="M31.93 19.481a1.032 1.032 0 0 1-.271-.706c0-.271.109-.488.271-.705.163-.163.435-.272.706-.272.272 0 .49.109.706.272.163.162.272.434.272.706 0 .271-.109.488-.272.705a1.032 1.032 0 0 1-.706.272c-.271 0-.488-.109-.706-.272zm-1.629 14.825c-2.498 0-4.507-1.846-4.507-4.181 0-2.01 1.52-3.638 3.53-4.073v-.108c0-.543.434-.978.977-.978.543 0 .978.434.978.977v.163c2.01.435 3.53 2.064 3.53 4.073a.974.974 0 0 1-.978.978.973.973 0 0 1-.977-.978c0-1.194-1.14-2.226-2.553-2.226-1.411 0-2.552.977-2.552 2.226 0 1.195 1.14 2.227 2.552 2.227 2.498 0 4.508 1.846 4.508 4.181 0 2.01-1.52 3.638-3.53 4.073v.271a.973.973 0 0 1-.978.978.973.973 0 0 1-.977-.978v-.271c-2.01-.435-3.53-2.064-3.53-4.073 0-.543.435-.977.978-.977.543 0 .977.434.977.977 0 1.195 1.14 2.226 2.552 2.226 1.412 0 2.553-.977 2.553-2.226 0-1.303-1.14-2.28-2.553-2.28zm19.713 3.041C50.014 44.352 44.312 50 37.36 50H23.296c-2.226 0-4.398-.597-6.353-1.683-1.684-.978-3.096-2.336-4.182-3.91-.163.108-.38.163-.543.271a1.021 1.021 0 0 1-.434.109c-.163 0-.272-.054-.435-.109-4.887-2.28-7.982-4.507-9.611-7.113C.218 35.229.054 32.895 0 30.342v-8.145a.97.97 0 0 1 .543-.87l10.86-4.995a1.06 1.06 0 0 1 .815 0l10.752 4.941a.967.967 0 0 1 .543.87v8.09c-.054 2.553-.217 4.888-1.737 7.223-1.358 2.118-3.747 4.073-7.331 5.973 2.009 2.878 5.213 4.562 8.743 4.562h14.064c5.92 0 10.698-4.833 10.698-10.698 0-6.245-2.172-12.435-6.082-17.323l-4.942-6.19v8.58a.973.973 0 0 1-.977.977.973.973 0 0 1-.977-.977v-9.775h-1.467V15.3a.973.973 0 0 1-.977.977.973.973 0 0 1-.978-.977v-2.715h-7.06l-3.474 4.344c-.326.435-.978.489-1.358.163-.434-.326-.489-.977-.163-1.357l3.367-4.182-2.878-5.702c-.652-1.249-.38-2.66.651-3.638 1.032-.978 2.444-1.14 3.639-.435.38.218.923.218 1.303-.108 2.77-2.227 6.788-2.227 9.557 0 .38.271.87.326 1.304.108 1.194-.706 2.66-.543 3.638.435 1.032.977 1.249 2.39.652 3.638l-2.878 5.702 5.647 7.223c4.181 5.267 6.517 11.838 6.517 18.571zm-28.401-7.06v-7.439l-9.775-4.507-9.774 4.507v7.494c.108 4.181.162 7.82 9.774 12.381 9.558-4.561 9.666-8.2 9.775-12.435zM38.88 4.983c.38-.706-.108-1.194-.217-1.357-.163-.163-.651-.543-1.358-.163a3.03 3.03 0 0 1-3.475-.272 5.565 5.565 0 0 0-7.06 0 3.031 3.031 0 0 1-3.475.272c-.651-.38-1.194 0-1.357.163-.163.163-.598.651-.218 1.357l2.933 5.702h11.35l2.877-5.702zm-28.4 29.813l-2.987-2.987a.95.95 0 0 1 0-1.357.95.95 0 0 1 1.357 0l2.335 2.335 5.485-5.485a.95.95 0 0 1 1.358 0 .95.95 0 0 1 0 1.358l-6.136 6.136c-.218.217-.435.271-.707.271-.271 0-.488-.108-.705-.271z"/>
  </symbol>
  <symbol viewBox="0 0 66 65" fill="none" xmlns="http://www.w3.org/2000/svg" id="payment">
    <path fill-rule="evenodd" clip-rule="evenodd" d="M63.3 30.688l-31.65 31.65h14.42c.739 0 1.33.591 1.33 1.33 0 .74-.591 1.332-1.33 1.332H18.93c-.74 0-1.332-.592-1.332-1.331 0-.74.592-1.331 1.332-1.331h2.366L4.215 45.256l-2.514-2.514A5.816 5.816 0 0 1 0 38.6a5.82 5.82 0 0 1 1.7-4.141L34.313 1.7a5.816 5.816 0 0 1 4.14-1.7 5.82 5.82 0 0 1 4.142 1.7l20.631 20.632a5.87 5.87 0 0 1 .074 8.356zm-1.923-6.433L49.989 12.867 18.635 44.295c-.296.295-.592.37-.962.37s-.665-.148-.96-.37a1.384 1.384 0 0 1 0-1.923l31.353-31.354-7.32-7.32a3.244 3.244 0 0 0-2.293-.962c-.888 0-1.627.296-2.293.961L3.55 36.308a3.244 3.244 0 0 0-.962 2.293c0 .887.296 1.627.961 2.292l1.553 1.553L36.53 11.018a1.384 1.384 0 0 1 1.923 0 1.384 1.384 0 0 1 0 1.923L7.099 44.295l17.082 17.082c.591.591 1.405.96 2.218.96.888 0 1.627-.295 2.219-.96l32.685-32.685c1.33-1.183 1.33-3.18.074-4.437zm-11.61 8.06c-.296.296-.592.37-.962.37s-.665-.148-.96-.37l-3.846-3.845c-.222-.222-.37-.592-.37-.961 0-.37.148-.74.37-.962l5.768-5.768c.222-.221.591-.37.961-.37s.74.149.961.37l3.846 3.846a1.384 1.384 0 0 1 0 1.922l-5.768 5.768zm.961-8.652l-3.845 3.846 1.922 1.922 3.846-3.845-1.923-1.923zM34.312 47.77c-.296.296-.592.37-.962.37s-.665-.148-.96-.37a1.384 1.384 0 0 1 0-1.922l.59-.592a1.384 1.384 0 0 1 1.923 0 1.384 1.384 0 0 1 0 1.923l-.591.591zm-11.684 3.993c-.296.296-.592.37-.961.37-.37 0-.666-.148-.962-.37a1.384 1.384 0 0 1 0-1.922l10.649-10.649a1.384 1.384 0 0 1 1.922 0 1.384 1.384 0 0 1 0 1.923L22.628 51.763zm6.36-2.514a1.384 1.384 0 0 1 1.922 0 1.384 1.384 0 0 1 0 1.923l-4.363 4.363c-.296.296-.591.37-.961.37s-.666-.148-.961-.37a1.384 1.384 0 0 1 0-1.923l4.363-4.363zm-14.124-1.257c-.296.296-.592.37-.962.37s-.665-.148-.961-.37a1.384 1.384 0 0 1 0-1.923l.591-.591a1.384 1.384 0 0 1 1.923 0 1.384 1.384 0 0 1 0 1.922l-.591.592zM40.227 7.321a1.384 1.384 0 0 1 1.923 0 1.384 1.384 0 0 1 0 1.922l-.591.592c-.296.296-.592.37-.962.37s-.665-.148-.961-.37a1.384 1.384 0 0 1 0-1.923l.591-.591z" fill="#00398E"/>
  </symbol>
  <symbol viewBox="0 0 70 70" fill="none" xmlns="http://www.w3.org/2000/svg" id="podium">
    <path d="M29.531 61.387a1.368 1.368 0 1 0 .001 2.735 1.368 1.368 0 0 0 0-2.735zm8.203-13.672h-1.367v-9.57c0-.756-.612-1.368-1.367-1.368h-2.734a1.367 1.367 0 1 0 0 2.735h1.367v8.203h-1.367a1.367 1.367 0 1 0 0 2.734h5.468a1.367 1.367 0 1 0 0-2.734zM15.45 55.918c.754 0 1.366-.612 1.366-1.367v-5.469c0-.755-.612-1.367-1.367-1.367H9.98a1.367 1.367 0 1 0 0 2.734h4.102v2.735H9.98c-.755 0-1.367.612-1.367 1.367v5.468c0 .756.612 1.368 1.367 1.368h5.47a1.367 1.367 0 1 0 0-2.735h-4.102v-2.734h4.101zm44.57-5.468h-5.47a1.367 1.367 0 1 0 0 2.734h4.102v2.734h-4.101a1.367 1.367 0 1 0 0 2.734h4.101v2.735h-4.101a1.367 1.367 0 1 0 0 2.734h5.468c.756 0 1.368-.612 1.368-1.367V51.816c0-.755-.612-1.367-1.367-1.367z" fill="#00398E"/>
    <path d="M68.633 44.98H47.305V32.267c0-.755-.612-1.368-1.367-1.368H24.061c-.755 0-1.367.613-1.367 1.368v7.246H1.367C.612 39.513 0 40.125 0 40.88v27.754C0 69.388.612 70 1.367 70h67.266c.755 0 1.367-.612 1.367-1.367V46.348c0-.755-.612-1.367-1.367-1.367zM22.695 67.267H2.735v-25.02h19.96v25.02zm21.875 0H25.43V33.633h19.14v33.633zm22.696 0H47.305V47.715h19.96v19.55zM48.572 10.42a1.367 1.367 0 0 0-1.103-.931l-7.785-1.131L36.188.794a1.367 1.367 0 0 0-2.482 0l-3.498 7.564-7.784 1.131a1.367 1.367 0 0 0-.758 2.332l5.653 5.51-1.34 8.191a1.367 1.367 0 0 0 1.986 1.431l6.982-3.671 6.98 3.671a1.365 1.365 0 0 0 1.435-.1c.421-.304.634-.819.55-1.33l-1.34-8.192 5.654-5.51c.373-.363.507-.907.346-1.402zm-8.418 5.45c-.32.312-.467.76-.395 1.2l1.012 6.185-5.188-2.728a1.368 1.368 0 0 0-1.273 0l-5.19 2.729 1.013-6.186a1.367 1.367 0 0 0-.395-1.2l-4.18-4.073 5.776-.84c.458-.066.85-.36 1.045-.779l2.568-5.553 2.566 5.553c.194.42.587.713 1.045.78l5.776.838-4.18 4.074z" fill="#00398E"/>
    <path d="M40.469 61.387H35a1.367 1.367 0 1 0 0 2.734h5.469a1.367 1.367 0 0 0 0-2.734z" fill="#00398E"/>
  </symbol>
  <symbol viewBox="0 0 55 50" fill="none" xmlns="http://www.w3.org/2000/svg" id="voltage">
    <g clip-path="url(#clip0)" fill="#FFBC0F">
      <path d="M53.953 42.953L31.572 2.451A4.753 4.753 0 0 0 27.415 0h-.284c-1.727 0-3.32.939-4.157 2.453L.593 42.953A4.756 4.756 0 0 0 0 45.25C0 47.87 2.13 50 4.75 50h45.046c2.619 0 4.75-2.13 4.75-4.75 0-.8-.205-1.594-.593-2.297zm-4.157 4.774H4.75a2.48 2.48 0 0 1-2.169-3.675l22.381-40.5a2.48 2.48 0 0 1 2.169-1.28h.284a2.48 2.48 0 0 1 2.168 1.28l22.381 40.5a2.48 2.48 0 0 1-2.168 3.675z"/>
      <path d="M35.227 27.273h-5.14l3.922-9.806a1.137 1.137 0 0 0-1.054-1.558H25c-.48 0-.908.302-1.07.754l-5.682 15.91c-.124.347-.07.734.14 1.036.213.302.56.482.93.482h5.14l-3.921 9.805a1.137 1.137 0 0 0 1.917 1.161l13.637-15.909a1.135 1.135 0 1 0-.863-1.875zM25.195 38.367l1.995-4.99a1.137 1.137 0 0 0-1.054-1.559h-5.204L25.8 18.182h5.476l-3.922 9.805a1.137 1.137 0 0 0 1.054 1.559h4.348l-7.562 8.82z"/>
    </g>
    <defs>
      <clipPath id="clip0">
        <path fill="#fff" d="M0 0h54.545v50H0z"/>
      </clipPath>
    </defs>
  </symbol>
  <symbol viewBox="0 0 35 36" fill="none" xmlns="http://www.w3.org/2000/svg" id="waterpipe">
    <g clip-path="url(#clip0)" fill="#fff">
      <path d="M32.576 8.07h-1.602V6.978h.534a.54.54 0 0 0 .534-.547V4.243a.54.54 0 0 0-.534-.547h-.534v-1.64a.54.54 0 0 0-.534-.548H25.1a.54.54 0 0 0-.534.547v1.64h-.534a.54.54 0 0 0-.534.548V6.43a.54.54 0 0 0 .534.547h.534v1.094h-1.602a.54.54 0 0 0-.534.547v2.187a.54.54 0 0 0 .534.547h1.602v6.563c0 1.206-.958 2.187-2.136 2.187-1.178 0-2.136-.98-2.136-2.187v-7.657c0-4.824-3.834-8.75-8.545-8.75s-8.545 3.926-8.545 8.75v6.563H1.602a.54.54 0 0 0-.534.547v2.187c0 .302.24.547.534.547h1.602v1.094H2.67a.54.54 0 0 0-.534.547v2.187c0 .302.24.547.534.547h.534v1.64c0 .303.24.548.534.548h5.34a.54.54 0 0 0 .535-.547v-1.64h.534a.54.54 0 0 0 .534-.548v-2.187a.54.54 0 0 0-.534-.547h-.534v-1.094h1.602a.54.54 0 0 0 .534-.547v-2.187a.54.54 0 0 0-.534-.547H9.613v-6.563c0-1.206.958-2.187 2.136-2.187 1.178 0 2.136.981 2.136 2.187v7.657c0 4.824 3.833 8.75 8.545 8.75 4.71 0 8.544-3.926 8.544-8.75v-6.563h1.602a.54.54 0 0 0 .534-.547V8.618a.54.54 0 0 0-.534-.547zm-6.942-5.468h4.272v1.094h-4.272V2.602zM24.566 4.79h6.408v1.093h-6.408V4.79zm1.068 2.187h4.272v1.094h-4.272V6.977zM8.544 25.571H4.273v-1.094h4.273v1.094zm1.069-2.188H3.204V22.29h6.409v1.093zm-1.068-2.187H4.272v-1.094h4.273v1.094zm2.136-2.188H2.136v-1.093h8.545v1.093zm19.225-1.093c0 4.222-3.354 7.656-7.476 7.656-4.123 0-7.477-3.434-7.477-7.656v-7.657c0-1.81-1.437-3.28-3.204-3.28-1.767 0-3.204 1.47-3.204 3.28v6.563H4.272v-6.563c0-4.221 3.354-7.656 7.477-7.656s7.476 3.435 7.476 7.656v7.657c0 1.81 1.438 3.28 3.205 3.28 1.767 0 3.204-1.47 3.204-3.28v-6.563h4.272v6.563zm2.136-7.657h-8.544V9.165h8.544v1.093zM6.853 28.002c-.198-.305-.69-.305-.889 0l-1.598 2.454a3.89 3.89 0 0 0-.628 2.13c0 1.447 1.059 2.684 2.41 2.816a2.647 2.647 0 0 0 2.057-.698 2.773 2.773 0 0 0 .874-2.024v-.1c0-.758-.218-1.492-.628-2.123l-1.598-2.455zM8.01 32.68c0 .461-.192.904-.525 1.214a1.559 1.559 0 0 1-1.236.42c-.81-.08-1.444-.839-1.444-1.734 0-.542.156-1.066.449-1.517l1.153-1.772 1.154 1.772c.293.45.449.975.449 1.517v.1z"/>
    </g>
    <defs>
      <clipPath id="clip0">
        <path fill="#fff" transform="translate(0 .962)" d="M0 0h34.178v35H0z"/>
      </clipPath>
    </defs>
  </symbol>
  <symbol viewBox="0 0 65 65" fill="none" xmlns="http://www.w3.org/2000/svg" id="week">
    <path d="M58.6523 5.58594H52.6009V3.80859C52.6009 1.70854 50.8923 0 48.7923 0C46.6922 0 44.9837 1.70854 44.9837 3.80859V5.58594H23.6556V3.80859C23.6556 1.70854 21.947 0 19.847 0C17.7469 0 16.0384 1.70854 16.0384 3.80859V5.63291C15.9305 5.60308 15.8173 5.58594 15.6999 5.58594H10.6416C7.14149 5.58594 4.29394 8.4335 4.29394 11.9336V33.5579C4.29394 34.2591 4.86243 34.8274 5.56347 34.8274C6.2645 34.8274 6.833 34.2591 6.833 33.5579V18.6621H52.6009C53.3019 18.6621 53.8704 18.0937 53.8704 17.3926C53.8704 16.6914 53.3019 16.123 52.6009 16.123H6.833V11.9336C6.833 9.83354 8.54153 8.125 10.6416 8.125H15.6999C15.8173 8.125 15.9305 8.10773 16.0384 8.07803V9.71191C16.0384 11.812 17.7469 13.5205 19.847 13.5205C21.947 13.5205 23.6556 11.812 23.6556 9.71191V8.125H44.9837V9.71191C44.9837 11.812 46.6922 13.5205 48.7923 13.5205C50.8923 13.5205 52.6009 11.812 52.6009 9.71191V8.125H58.6523C60.7524 8.125 62.4609 9.83354 62.4609 11.9336V60.175C62.4609 61.4354 61.4355 62.4609 60.175 62.4609C58.9145 62.4609 57.8891 61.4354 57.8891 60.175V56.8909C57.8891 56.1897 57.3206 55.6213 56.6196 55.6213H41.8523C41.1512 55.6213 40.5827 56.1897 40.5827 56.8909C40.5827 57.592 41.1512 58.1604 41.8523 58.1604H55.35V60.175C55.35 61.0016 55.5593 61.7801 55.927 62.4609H4.82422C3.56421 62.4609 2.53906 61.4358 2.53906 60.1758V58.1604H30.9543C31.6554 58.1604 32.2239 57.592 32.2239 56.8909C32.2239 56.1897 31.6554 55.6213 30.9543 55.6213H18.2697C20.4881 53.7108 21.8967 50.8848 21.8967 47.7344C21.8967 41.9942 17.2268 37.3242 11.4866 37.3242C5.74641 37.3242 1.07644 41.9942 1.07644 47.7344C1.07644 50.8848 2.48511 53.7108 4.70349 55.6213H1.26953C0.568496 55.6213 0 56.1897 0 56.8909V60.1758C0 62.8358 2.16417 65 4.82422 65H60.175C62.8354 65 65 62.8356 65 60.175V11.9336C65 8.4335 62.1524 5.58594 58.6523 5.58594ZM21.1165 9.71191C21.1165 10.4119 20.547 10.9814 19.847 10.9814C19.1469 10.9814 18.5774 10.4119 18.5774 9.71191V3.80859C18.5774 3.10857 19.1469 2.53906 19.847 2.53906C20.547 2.53906 21.1165 3.10857 21.1165 3.80859V9.71191ZM50.0618 9.71191C50.0618 10.4119 49.4923 10.9814 48.7923 10.9814C48.0923 10.9814 47.5227 10.4119 47.5227 9.71191V3.80859C47.5227 3.10857 48.0923 2.53906 48.7923 2.53906C49.4923 2.53906 50.0618 3.10857 50.0618 3.80859V9.71191ZM3.6155 47.7344C3.6155 43.3942 7.14644 39.8633 11.4866 39.8633C15.8267 39.8633 19.3577 43.3942 19.3577 47.7344C19.3577 52.0745 15.8267 55.6055 11.4866 55.6055C7.14644 55.6055 3.6155 52.0745 3.6155 47.7344Z" fill="#00398E"/>
    <path d="M59.4533 16.495C59.2173 16.2589 58.8898 16.123 58.5559 16.123C58.2219 16.123 57.8945 16.2589 57.6584 16.495C57.4222 16.7312 57.2864 17.0587 57.2864 17.3926C57.2864 17.7265 57.4221 18.054 57.6584 18.2901C57.8946 18.5263 58.2219 18.6621 58.5559 18.6621C58.8898 18.6621 59.2173 18.5263 59.4533 18.2901C59.6895 18.054 59.8254 17.7265 59.8254 17.3926C59.8254 17.0587 59.6896 16.7312 59.4533 16.495Z" fill="#00398E"/>
    <path d="M37.9145 55.9926C37.6785 55.7565 37.351 55.6219 37.0171 55.6219C36.6832 55.6219 36.3557 55.7565 36.1195 55.9926C35.8834 56.2301 35.7476 56.5563 35.7476 56.8902C35.7476 57.2254 35.8833 57.5516 36.1195 57.789C36.3557 58.0252 36.6832 58.1597 37.0171 58.1597C37.351 58.1597 37.6785 58.0252 37.9145 57.789C38.1507 57.5516 38.2866 57.2241 38.2866 56.8902C38.2866 56.5563 38.1508 56.2301 37.9145 55.9926Z" fill="#00398E"/>
    <path d="M28.7224 38.5938C26.0624 38.5938 23.8982 40.7579 23.8982 43.418C23.8982 46.078 26.0624 48.2422 28.7224 48.2422C31.3825 48.2422 33.5466 46.078 33.5466 43.418C33.5466 40.7579 31.3825 38.5938 28.7224 38.5938ZM28.7224 45.7031C27.4624 45.7031 26.4373 44.678 26.4373 43.418C26.4373 42.158 27.4624 41.1328 28.7224 41.1328C29.9824 41.1328 31.0076 42.158 31.0076 43.418C31.0076 44.678 29.9824 45.7031 28.7224 45.7031Z" fill="#00398E"/>
    <path d="M40.5715 38.5938C37.9115 38.5938 35.7473 40.7579 35.7473 43.418C35.7473 46.078 37.9115 48.2422 40.5715 48.2422C43.2316 48.2422 45.3958 46.078 45.3958 43.418C45.3958 40.7579 43.2316 38.5938 40.5715 38.5938ZM40.5715 45.7031C39.3115 45.7031 38.2864 44.678 38.2864 43.418C38.2864 42.158 39.3115 41.1328 40.5715 41.1328C41.8315 41.1328 42.8567 42.158 42.8567 43.418C42.8567 44.678 41.8315 45.7031 40.5715 45.7031Z" fill="#00398E"/>
    <path d="M52.4204 38.5938C49.7604 38.5938 47.5962 40.7579 47.5962 43.418C47.5962 46.078 49.7604 48.2422 52.4204 48.2422C55.0805 48.2422 57.2446 46.078 57.2446 43.418C57.2446 40.7579 55.0805 38.5938 52.4204 38.5938ZM52.4204 45.7031C51.1604 45.7031 50.1353 44.678 50.1353 43.418C50.1353 42.158 51.1604 41.1328 52.4204 41.1328C53.6804 41.1328 54.7056 42.158 54.7056 43.418C54.7056 44.678 53.6804 45.7031 52.4204 45.7031Z" fill="#00398E"/>
    <path d="M16.8735 25.3906C14.2135 25.3906 12.0493 27.5548 12.0493 30.2148C12.0493 32.8749 14.2135 35.039 16.8735 35.039C19.5336 35.039 21.6978 32.8749 21.6978 30.2148C21.6978 27.5548 19.5336 25.3906 16.8735 25.3906ZM16.8735 32.5C15.6135 32.5 14.5884 31.4748 14.5884 30.2148C14.5884 28.9548 15.6135 27.9297 16.8735 27.9297C18.1335 27.9297 19.1587 28.9548 19.1587 30.2148C19.1587 31.4748 18.1335 32.5 16.8735 32.5Z" fill="#00398E"/>
    <path d="M40.5715 25.3906C37.9115 25.3906 35.7473 27.5548 35.7473 30.2148C35.7473 32.8749 37.9115 35.039 40.5715 35.039C43.2316 35.039 45.3958 32.8749 45.3958 30.2148C45.3958 27.5548 43.2316 25.3906 40.5715 25.3906ZM40.5715 32.5C39.3115 32.5 38.2864 31.4748 38.2864 30.2148C38.2864 28.9548 39.3115 27.9297 40.5715 27.9297C41.8315 27.9297 42.8567 28.9548 42.8567 30.2148C42.8567 31.4748 41.8315 32.5 40.5715 32.5Z" fill="#00398E"/>
    <path d="M52.4204 25.3906C49.7604 25.3906 47.5962 27.5548 47.5962 30.2148C47.5962 32.8749 49.7604 35.039 52.4204 35.039C55.0805 35.039 57.2446 32.8749 57.2446 30.2148C57.2446 27.5548 55.0805 25.3906 52.4204 25.3906ZM52.4204 32.5C51.1604 32.5 50.1353 31.4748 50.1353 30.2148C50.1353 28.9548 51.1604 27.9297 52.4204 27.9297C53.6804 27.9297 54.7056 28.9548 54.7056 30.2148C54.7056 31.4748 53.6804 32.5 52.4204 32.5Z" fill="#00398E"/>
    <path d="M28.7224 25.3906C26.0624 25.3906 23.8982 27.5548 23.8982 30.2148C23.8982 32.8749 26.0624 35.039 28.7224 35.039C31.3825 35.039 33.5466 32.8749 33.5466 30.2148C33.5466 27.5548 31.3825 25.3906 28.7224 25.3906ZM28.7224 32.5C27.4624 32.5 26.4373 31.4748 26.4373 30.2148C26.4373 28.9548 27.4624 27.9297 28.7224 27.9297C29.9824 27.9297 31.0076 28.9548 31.0076 30.2148C31.0076 31.4748 29.9824 32.5 28.7224 32.5Z" fill="#00398E"/>
    <path d="M16.0093 44.6404C15.5134 44.1447 14.7098 44.1447 14.2138 44.6404L10.0794 48.7749L8.66658 47.3621C8.1707 46.8663 7.36709 46.8663 6.87108 47.3621C6.37533 47.8578 6.37533 48.6617 6.87108 49.1576L9.18176 51.468C9.41992 51.706 9.74276 51.8398 10.0794 51.8398C10.4161 51.8398 10.739 51.706 10.9771 51.468L16.0093 46.4358C16.505 45.94 16.505 45.1362 16.0093 44.6404Z" fill="#00398E"/>
  </symbol>

  <symbol viewBox="0 0 50 50" fill="none" xmlns="http://www.w3.org/2000/svg" id="arrowRnd">
    <circle cx="25" cy="25" r="23.5" stroke="#00398E" stroke-width="3"/>
    <path fill-rule="evenodd" clip-rule="evenodd" d="M35.9774 19.2581L34.9879 18.2903C34.5921 17.9032 33.8994 17.9032 33.5036 18.2903L23.1634 28.5484L17.7706 23.1774C17.3748 22.7903 16.6821 22.7903 16.2863 23.1774L15.2968 24.1452C14.9011 24.5323 14.9011 25.2097 15.2968 25.5968L22.4212 32.7097C22.6191 32.9032 22.8665 33 23.1634 33C23.4107 33 23.7076 32.9032 23.9055 32.7097L35.9774 20.7581C36.3732 20.3226 36.3732 19.6935 35.9774 19.2581Z" fill="#00398E"/>
  </symbol>
  <symbol viewBox="0 0 25 25" fill="none" xmlns="http://www.w3.org/2000/svg" id="arrowRnd-bl">
    <circle cx="12.5" cy="12.5" r="11.5" stroke="black" stroke-width="2"/>
    <path fill-rule="evenodd" clip-rule="evenodd" d="M18.8326 9.67097L18.2744 9.15484C18.0512 8.94839 17.6605 8.94839 17.4372 9.15484L11.6047 14.6258L8.56279 11.7613C8.33953 11.5548 7.94884 11.5548 7.72558 11.7613L7.16744 12.2774C6.94419 12.4839 6.94419 12.8452 7.16744 13.0516L11.186 16.8452C11.2977 16.9484 11.4372 17 11.6047 17C11.7442 17 11.9116 16.9484 12.0233 16.8452L18.8326 10.471C19.0558 10.2387 19.0558 9.90323 18.8326 9.67097Z" fill="black"/>
  </symbol>
  <symbol viewBox="0 0 25 25" fill="none" xmlns="http://www.w3.org/2000/svg" id="crossRnd">
    <g clip-path="url(#clip0)">
      <path d="M12.4512 -0.0488281C5.54752 -0.0488281 -0.0488281 5.54752 -0.0488281 12.4512C-0.0488281 19.3548 5.54752 24.9512 12.4512 24.9512C19.3548 24.9512 24.9512 19.3548 24.9512 12.4512C24.943 5.55096 19.3514 -0.0406265 12.4512 -0.0488281ZM12.4512 23.3887C6.4106 23.3887 1.51367 18.4917 1.51367 12.4512C1.51367 6.4106 6.4106 1.51367 12.4512 1.51367C18.4917 1.51367 23.3887 6.4106 23.3887 12.4512C23.3822 18.4891 18.4891 23.3822 12.4512 23.3887Z" fill="#00398E"/>
      <path d="M18.5279 6.37457C18.2228 6.06959 17.7282 6.06959 17.4232 6.37457L12.4513 11.3465L7.47943 6.37457C7.1796 6.06425 6.68502 6.05566 6.3747 6.3555C6.06437 6.65514 6.05579 7.14972 6.35562 7.46005C6.36192 7.46653 6.36821 7.47302 6.3747 7.47931L11.3466 12.4512L6.3747 17.4231C6.06437 17.7227 6.05579 18.2173 6.35562 18.5278C6.65527 18.8381 7.14984 18.8467 7.46017 18.5469C7.46665 18.5406 7.47314 18.5343 7.47943 18.5278L12.4513 13.5559L17.4232 18.5278C17.7335 18.8275 18.2281 18.8189 18.5278 18.5086C18.8201 18.2059 18.8201 17.7258 18.5278 17.4231L13.5561 12.4512L18.5279 7.47931C18.8329 7.17432 18.8329 6.67975 18.5279 6.37457Z" fill="#00398E"/>
    </g>
    <defs>
      <clipPath id="clip0">
        <rect width="25" height="25" fill="white"/>
      </clipPath>
    </defs>
  </symbol>
  <symbol viewBox="0 0 25 26" fill="none" xmlns="http://www.w3.org/2000/svg" id="fb">
    <rect x="1" y="1.01904" width="23" height="23.6011" rx="6" stroke="#FFBC0F" stroke-width="2"/>
    <g clip-path="url(#clip0)">
    <path fill-rule="evenodd" clip-rule="evenodd" d="M12.5108 11.1865C12.5108 11.5736 12.5108 13.3017 12.5108 13.3017H10.9961V15.8878H12.5108V23.5712H15.6251V15.8878H17.7141C17.7141 15.8878 17.9104 14.6487 18.0041 13.2927C17.7316 13.2927 15.6369 13.2927 15.6369 13.2927C15.6369 13.2927 15.6369 11.7896 15.6369 11.5256C15.6369 11.2615 15.9767 10.9045 16.3107 10.9045C16.6447 10.9045 17.3537 10.9045 18.007 10.9045C18.007 10.5535 18.007 9.33544 18.007 8.21338C17.134 8.21338 16.1378 8.21338 15.7013 8.21338C12.4317 8.21038 12.5108 10.7995 12.5108 11.1865Z" fill="#FFBC0F"/>
    </g>
    <defs>
    <clipPath id="clip0">
    <rect width="15.0004" height="15.3608" fill="white" transform="translate(7 8.21143)"/>
    </clipPath>
    </defs>
  </symbol>
  <symbol viewBox="0 0 25 26" fill="none" xmlns="http://www.w3.org/2000/svg" id="vk">
    <rect x="1" y="1.01904" width="23" height="23.6011" rx="6" stroke="#FFBC0F" stroke-width="2"/>
    <path fill-rule="evenodd" clip-rule="evenodd" d="M18.4244 14.9672C18.1426 14.6214 17.8201 14.3094 17.5103 14.0078C17.4012 13.9012 17.2869 13.7894 17.1752 13.6802C16.8603 13.3629 16.8476 13.2459 17.099 12.8871C17.2717 12.6401 17.4545 12.3931 17.6322 12.1513C17.7922 11.9329 17.9598 11.7093 18.1197 11.4831L18.1527 11.4363C18.4574 11.0047 18.7723 10.5574 18.9398 10.0192C18.983 9.87621 19.0287 9.6682 18.9246 9.49399C18.8205 9.31979 18.6174 9.26519 18.4726 9.24178C18.4016 9.22878 18.3305 9.22878 18.267 9.22878L16.2713 9.22618H16.2535C15.9514 9.22618 15.7482 9.37179 15.6314 9.6708C15.5197 9.95681 15.3978 10.261 15.2582 10.5522C14.9814 11.1295 14.6285 11.7951 14.1182 12.3489L14.0978 12.3723C14.0369 12.4373 13.9683 12.5127 13.9201 12.5127C13.9125 12.5127 13.9049 12.5101 13.8947 12.5075C13.7881 12.4659 13.717 12.2033 13.7221 12.0811C13.7221 12.0785 13.7221 12.0785 13.7221 12.0759L13.7195 9.7176C13.7195 9.7098 13.7195 9.702 13.717 9.6942C13.6662 9.30939 13.5545 9.07018 13.1279 8.98698C13.1178 8.98437 13.1051 8.98438 13.0924 8.98438H11.0154C10.6777 8.98438 10.4898 9.12478 10.3146 9.33539C10.2664 9.39259 10.1699 9.50959 10.2182 9.65C10.2689 9.79301 10.4289 9.82421 10.4797 9.83461C10.7387 9.88401 10.8859 10.0478 10.9266 10.3312C11.0002 10.8252 11.0078 11.3505 10.9545 11.9875C10.9392 12.1643 10.9113 12.3021 10.8605 12.4191C10.8504 12.4451 10.8098 12.5361 10.7691 12.5361C10.7564 12.5361 10.7183 12.5309 10.6498 12.4841C10.4949 12.3697 10.3781 12.2085 10.241 12.0083C9.77382 11.3323 9.38026 10.5886 9.04257 9.7306C8.91561 9.41599 8.68202 9.23918 8.37987 9.23398C8.04725 9.22878 7.74764 9.22618 7.46073 9.22618C7.14843 9.22618 6.85643 9.22878 6.5746 9.23398C6.33085 9.23918 6.16327 9.31199 6.07694 9.45499C5.98807 9.598 5.99315 9.78521 6.09472 10.0114C6.88944 11.8315 7.61561 13.1523 8.44081 14.299C9.01972 15.0998 9.59862 15.6562 10.2664 16.0462C10.9697 16.4571 11.7568 16.6573 12.6734 16.6573C12.7775 16.6573 12.8842 16.6547 12.9933 16.6495C13.5266 16.6235 13.7246 16.4259 13.75 15.8954C13.7627 15.625 13.7906 15.339 13.9201 15.0972C14.0014 14.9438 14.0801 14.9438 14.1055 14.9438C14.1537 14.9438 14.2146 14.9672 14.2781 15.0088C14.3949 15.0868 14.4939 15.1908 14.5752 15.2818C14.6514 15.3676 14.7275 15.456 14.8037 15.5418C14.9687 15.729 15.1363 15.924 15.314 16.1086C15.7025 16.5117 16.1291 16.6885 16.6191 16.6521H18.4498C18.4549 16.6521 18.4574 16.6521 18.4625 16.6521C18.6453 16.6391 18.8027 16.5351 18.8967 16.3687C19.0109 16.1606 19.0084 15.8954 18.8916 15.6562C18.7545 15.3858 18.5793 15.157 18.4244 14.9672Z" fill="#FFBC0F"/>
  </symbol>
  <symbol viewBox="0 0 11 7" xmlns="http://www.w3.org/2000/svg" id="accArrow">
    <path fill-rule="evenodd" clip-rule="evenodd" d="M5.49579 6.23975L0.266539 1.44054C-0.0888465 1.11438 -0.0888465 0.57078 0.266539 0.24462C0.621925 -0.0815399 1.21424 -0.0815399 1.56962 0.24462L5.49579 3.84791L9.42196 0.24462C9.77734 -0.0815399 10.3697 -0.0815399 10.725 0.24462C11.0804 0.57078 11.0804 1.11438 10.725 1.44054L5.49579 6.23975Z"/>
  </symbol>
</svg>
